<svg data-v-423bf9ae="" xmlns="http://www.w3.org/2000/svg" viewBox="0 0 211.83477453785244 60" class="font"><!----><!----><!----><g data-v-423bf9ae="" id="c67fe6ae-11ac-4453-9089-a5d0125f5e77" fill="white" transform="matrix(4.765686634463939,0,0,4.765686634463939,-2.2875294588630197,-20.01588343260311)"><path d="M7.41 4.20L7.41 4.20Q7.63 4.20 7.63 4.42L7.63 4.42L7.63 5.39L7.63 5.39Q7.63 5.61 7.41 5.61L7.41 5.61L4.90 5.61L4.90 5.61Q4.82 5.61 4.82 5.70L4.82 5.70L4.82 13.78L4.82 13.78Q4.82 14 4.59 14L4.59 14L3.42 14L3.42 14Q3.19 14 3.19 13.78L3.19 13.78L3.19 5.70L3.19 5.70Q3.19 5.61 3.11 5.61L3.11 5.61L0.70 5.61L0.70 5.61Q0.48 5.61 0.48 5.39L0.48 5.39L0.48 4.42L0.48 4.42Q0.48 4.20 0.70 4.20L0.70 4.20L7.41 4.20ZM11.70 6.73L11.70 6.73Q12.59 6.73 13.27 7.04L13.27 7.04L13.27 7.04Q13.94 7.35 14.31 7.89L14.31 7.89L14.31 7.89Q14.67 8.43 14.67 9.11L14.67 9.11L14.67 13.78L14.67 13.78Q14.67 14 14.45 14L14.45 14L13.27 14L13.27 14Q13.05 14 13.05 13.78L13.05 13.78L13.05 13.43L13.05 13.43Q13.05 13.37 13.02 13.36L13.02 13.36L13.02 13.36Q12.99 13.36 12.95 13.38L12.95 13.38L12.95 13.38Q12.19 14.11 10.93 14.11L10.93 14.11L10.93 14.11Q9.90 14.11 9.23 13.58L9.23 13.58L9.23 13.58Q8.57 13.05 8.57 12.00L8.57 12.00L8.57 12.00Q8.57 10.91 9.33 10.30L9.33 10.30L9.33 10.30Q10.09 9.69 11.48 9.69L11.48 9.69L12.96 9.69L12.96 9.69Q13.05 9.69 13.05 9.60L13.05 9.60L13.05 9.28L13.05 9.28Q13.05 8.74 12.72 8.43L12.72 8.43L12.72 8.43Q12.39 8.13 11.75 8.13L11.75 8.13L11.75 8.13Q11.26 8.13 10.93 8.31L10.93 8.31L10.93 8.31Q10.61 8.48 10.50 8.79L10.50 8.79L10.50 8.79Q10.44 8.99 10.25 8.97L10.25 8.97L8.99 8.82L8.99 8.82Q8.88 8.81 8.82 8.76L8.82 8.76L8.82 8.76Q8.76 8.71 8.78 8.64L8.78 8.64L8.78 8.64Q8.90 7.80 9.71 7.27L9.71 7.27L9.71 7.27Q10.51 6.73 11.70 6.73L11.70 6.73ZM11.38 12.82L11.38 12.82Q12.07 12.82 12.56 12.46L12.56 12.46L12.56 12.46Q13.05 12.10 13.05 11.54L13.05 11.54L13.05 10.89L13.05 10.89Q13.05 10.81 12.96 10.81L12.96 10.81L11.80 10.81L11.80 10.81Q11.06 10.81 10.63 11.09L10.63 11.09L10.63 11.09Q10.19 11.37 10.19 11.89L10.19 11.89L10.19 11.89Q10.19 12.33 10.53 12.58L10.53 12.58L10.53 12.58Q10.86 12.82 11.38 12.82L11.38 12.82ZM22.32 8.69L22.32 8.69Q22.55 9.41 22.55 10.40L22.55 10.40L22.55 10.40Q22.55 11.37 22.30 12.15L22.30 12.15L22.30 12.15Q21.99 13.06 21.29 13.59L21.29 13.59L21.29 13.59Q20.59 14.11 19.61 14.11L19.61 14.11L19.61 14.11Q18.62 14.11 18.02 13.38L18.02 13.38L18.02 13.38Q17.99 13.33 17.95 13.34L17.95 13.34L17.95 13.34Q17.92 13.36 17.92 13.41L17.92 13.41L17.92 13.78L17.92 13.78Q17.92 14 17.70 14L17.70 14L16.52 14L16.52 14Q16.30 14 16.30 13.78L16.30 13.78L16.30 4.42L16.30 4.42Q16.30 4.20 16.52 4.20L16.52 4.20L17.70 4.20L17.70 4.20Q17.92 4.20 17.92 4.42L17.92 4.42L17.92 7.39L17.92 7.39Q17.92 7.45 17.95 7.46L17.95 7.46L17.95 7.46Q17.99 7.46 18.02 7.42L18.02 7.42L18.02 7.42Q18.63 6.73 19.61 6.73L19.61 6.73L19.61 6.73Q20.64 6.73 21.32 7.25L21.32 7.25L21.32 7.25Q22.01 7.77 22.32 8.69L22.32 8.69ZM20.54 12.03L20.54 12.03Q20.87 11.44 20.87 10.43L20.87 10.43L20.87 10.43Q20.87 9.34 20.47 8.72L20.47 8.72L20.47 8.72Q20.08 8.13 19.35 8.13L19.35 8.13L19.35 8.13Q18.68 8.13 18.30 8.75L18.30 8.75L18.30 8.75Q17.95 9.32 17.95 10.42L17.95 10.42L17.95 10.42Q17.95 11.49 18.27 12.04L18.27 12.04L18.27 12.04Q18.66 12.70 19.36 12.70L19.36 12.70L19.36 12.70Q20.17 12.70 20.54 12.03L20.54 12.03ZM26.73 6.73L26.73 6.73Q27.61 6.73 28.29 7.04L28.29 7.04L28.29 7.04Q28.97 7.35 29.33 7.89L29.33 7.89L29.33 7.89Q29.69 8.43 29.69 9.11L29.69 9.11L29.69 13.78L29.69 13.78Q29.69 14 29.47 14L29.47 14L28.29 14L28.29 14Q28.07 14 28.07 13.78L28.07 13.78L28.07 13.43L28.07 13.43Q28.07 13.37 28.04 13.36L28.04 13.36L28.04 13.36Q28.01 13.36 27.97 13.38L27.97 13.38L27.97 13.38Q27.22 14.11 25.96 14.11L25.96 14.11L25.96 14.11Q24.92 14.11 24.25 13.58L24.25 13.58L24.25 13.58Q23.59 13.05 23.59 12.00L23.59 12.00L23.59 12.00Q23.59 10.91 24.35 10.30L24.35 10.30L24.35 10.30Q25.12 9.69 26.50 9.69L26.50 9.69L27.99 9.69L27.99 9.69Q28.07 9.69 28.07 9.60L28.07 9.60L28.07 9.28L28.07 9.28Q28.07 8.74 27.74 8.43L27.74 8.43L27.74 8.43Q27.41 8.13 26.77 8.13L26.77 8.13L26.77 8.13Q26.28 8.13 25.96 8.31L25.96 8.31L25.96 8.31Q25.63 8.48 25.52 8.79L25.52 8.79L25.52 8.79Q25.47 8.99 25.27 8.97L25.27 8.97L24.01 8.82L24.01 8.82Q23.90 8.81 23.84 8.76L23.84 8.76L23.84 8.76Q23.79 8.71 23.80 8.64L23.80 8.64L23.80 8.64Q23.93 7.80 24.73 7.27L24.73 7.27L24.73 7.27Q25.54 6.73 26.73 6.73L26.73 6.73ZM26.40 12.82L26.40 12.82Q27.09 12.82 27.58 12.46L27.58 12.46L27.58 12.46Q28.07 12.10 28.07 11.54L28.07 11.54L28.07 10.89L28.07 10.89Q28.07 10.81 27.99 10.81L27.99 10.81L26.82 10.81L26.82 10.81Q26.08 10.81 25.65 11.09L25.65 11.09L25.65 11.09Q25.21 11.37 25.21 11.89L25.21 11.89L25.21 11.89Q25.21 12.33 25.55 12.58L25.55 12.58L25.55 12.58Q25.89 12.82 26.40 12.82L26.40 12.82ZM34.73 6.73L34.73 6.73Q35.88 6.73 36.56 7.41L36.56 7.41L36.56 7.41Q37.24 8.08 37.24 9.24L37.24 9.24L37.24 13.78L37.24 13.78Q37.24 14 37.02 14L37.02 14L35.84 14L35.84 14Q35.62 14 35.62 13.78L35.62 13.78L35.62 9.58L35.62 9.58Q35.62 8.93 35.24 8.53L35.24 8.53L35.24 8.53Q34.87 8.13 34.27 8.13L34.27 8.13L34.27 8.13Q33.67 8.13 33.30 8.53L33.30 8.53L33.30 8.53Q32.93 8.92 32.93 9.56L32.93 9.56L32.93 13.78L32.93 13.78Q32.93 14 32.70 14L32.70 14L31.53 14L31.53 14Q31.30 14 31.30 13.78L31.30 13.78L31.30 7.07L31.30 7.07Q31.30 6.85 31.53 6.85L31.53 6.85L32.70 6.85L32.70 6.85Q32.93 6.85 32.93 7.07L32.93 7.07L32.93 7.45L32.93 7.45Q32.93 7.50 32.96 7.52L32.96 7.52L32.96 7.52Q32.98 7.53 33.01 7.49L33.01 7.49L33.01 7.49Q33.60 6.73 34.73 6.73L34.73 6.73ZM43.30 7.07L43.30 7.07Q43.30 6.85 43.53 6.85L43.53 6.85L44.70 6.85L44.70 6.85Q44.93 6.85 44.93 7.07L44.93 7.07L44.93 13.52L44.93 13.52Q44.93 15.27 43.92 16.03L43.92 16.03L43.92 16.03Q42.91 16.79 41.29 16.79L41.29 16.79L41.29 16.79Q40.89 16.79 40.49 16.74L40.49 16.74L40.49 16.74Q40.29 16.73 40.29 16.49L40.29 16.49L40.33 15.46L40.33 15.46Q40.33 15.36 40.40 15.30L40.40 15.30L40.40 15.30Q40.47 15.25 40.59 15.26L40.59 15.26L40.59 15.26Q41.06 15.29 41.24 15.29L41.24 15.29L41.24 15.29Q42.31 15.29 42.80 14.88L42.80 14.88L42.80 14.88Q43.30 14.46 43.30 13.48L43.30 13.48L43.30 13.40L43.30 13.40Q43.30 13.34 43.27 13.33L43.27 13.33L43.27 13.33Q43.25 13.31 43.20 13.36L43.20 13.36L43.20 13.36Q42.63 13.96 41.59 13.96L41.59 13.96L41.59 13.96Q40.68 13.96 39.93 13.50L39.93 13.50L39.93 13.50Q39.17 13.03 38.88 12.08L38.88 12.08L38.88 12.08Q38.70 11.42 38.70 10.39L38.70 10.39L38.70 10.39Q38.70 9.23 38.92 8.61L38.92 8.61L38.92 8.61Q39.20 7.76 39.89 7.25L39.89 7.25L39.89 7.25Q40.57 6.73 41.50 6.73L41.50 6.73L41.50 6.73Q42.57 6.73 43.20 7.36L43.20 7.36L43.20 7.36Q43.25 7.41 43.27 7.39L43.27 7.39L43.27 7.39Q43.30 7.38 43.30 7.32L43.30 7.32L43.30 7.07ZM43.20 11.62L43.20 11.62Q43.26 11.41 43.28 11.16L43.28 11.16L43.28 11.16Q43.30 10.92 43.30 10.37L43.30 10.37L43.30 10.37Q43.30 9.84 43.28 9.61L43.28 9.61L43.28 9.61Q43.26 9.38 43.19 9.16L43.19 9.16L43.19 9.16Q43.08 8.69 42.73 8.41L42.73 8.41L42.73 8.41Q42.39 8.13 41.86 8.13L41.86 8.13L41.86 8.13Q41.36 8.13 41.01 8.41L41.01 8.41L41.01 8.41Q40.66 8.69 40.50 9.16L40.50 9.16L40.50 9.16Q40.33 9.55 40.33 10.39L40.33 10.39L40.33 10.39Q40.33 11.26 40.47 11.61L40.47 11.61L40.47 11.61Q40.61 12.05 40.98 12.34L40.98 12.34L40.98 12.34Q41.36 12.63 41.87 12.63L41.87 12.63L41.87 12.63Q42.42 12.63 42.76 12.35L42.76 12.35L42.76 12.35Q43.09 12.07 43.20 11.62L43.20 11.62Z"></path></g><!----><!----></svg>